RobotoA2-YTLC426.ufo
<glyph name="c" format="2">
  <advance width="1068"/>
  <unicode hex="0063"/>
  <anchor x="571" y="0" name="bottom"/>
  <anchor x="571" y="852" name="top"/>
  <outline>
    <contour>
      <point x="85" y="410" type="qcurve" smooth="yes"/>
      <point x="85" y="442" type="line" smooth="yes"/>
      <point x="85" y="644"/>
      <point x="349" y="882"/>
      <point x="571" y="882" type="qcurve" smooth="yes"/>
      <point x="758" y="882"/>
      <point x="999" y="708"/>
      <point x="999" y="555" type="qcurve" smooth="yes"/>
      <point x="999" y="550" type="line"/>
      <point x="819" y="550" type="line"/>
      <point x="819" y="555" type="line" smooth="yes"/>
      <point x="819" y="641"/>
      <point x="679" y="730"/>
      <point x="571" y="730" type="qcurve" smooth="yes"/>
      <point x="432" y="730"/>
      <point x="275" y="578"/>
      <point x="275" y="442" type="qcurve" smooth="yes"/>
      <point x="275" y="410" type="line" smooth="yes"/>
      <point x="275" y="274"/>
      <point x="432" y="122"/>
      <point x="571" y="122" type="qcurve" smooth="yes"/>
      <point x="679" y="122"/>
      <point x="819" y="211"/>
      <point x="819" y="297" type="qcurve" smooth="yes"/>
      <point x="819" y="302" type="line"/>
      <point x="999" y="302" type="line"/>
      <point x="999" y="297" type="line" smooth="yes"/>
      <point x="999" y="144"/>
      <point x="758" y="-30"/>
      <point x="571" y="-30" type="qcurve" smooth="yes"/>
      <point x="349" y="-30"/>
      <point x="85" y="208"/>
    </contour>
  </outline>
</glyph>
<glyph name="i" format="2">
  <advance width="500"/>
  <unicode hex="0069"/>
  <anchor x="250" y="0" name="bottom"/>
  <anchor x="250" y="852" name="top"/>
  <anchor x="309" y="0" name="ogonek"/>
  <outline>
    <contour>
      <point x="157" y="0" type="line"/>
      <point x="157" y="852" type="line"/>
      <point x="343" y="852" type="line"/>
      <point x="343" y="0" type="line"/>
    </contour>
    <contour>
      <point x="134" y="1170" type="qcurve" smooth="yes"/>
      <point x="134" y="1217"/>
      <point x="194" y="1281"/>
      <point x="250" y="1281" type="qcurve" smooth="yes"/>
      <point x="306" y="1281"/>
      <point x="366" y="1217"/>
      <point x="366" y="1170" type="qcurve" smooth="yes"/>
      <point x="366" y="1123"/>
      <point x="306" y="1059"/>
      <point x="250" y="1059" type="qcurve" smooth="yes"/>
      <point x="194" y="1059"/>
      <point x="134" y="1123"/>
    </contour>
  </outline>
</glyph>
<glyph name="m" format="2">
  <advance width="1764"/>
  <unicode hex="006D"/>
  <anchor x="882" y="0" name="bottom"/>
  <anchor x="882" y="852" name="top"/>
  <outline>
    <contour>
      <point x="148" y="0" type="line"/>
      <point x="148" y="852" type="line"/>
      <point x="316" y="852" type="line"/>
      <point x="334" y="557" type="line"/>
      <point x="334" y="0" type="line"/>
    </contour>
    <contour>
      <point x="980" y="481" type="qcurve" smooth="yes"/>
      <point x="980" y="0" type="line"/>
      <point x="794" y="0" type="line"/>
      <point x="794" y="481" type="line" smooth="yes"/>
      <point x="794" y="607"/>
      <point x="686" y="716"/>
      <point x="587" y="716" type="qcurve" smooth="yes"/>
      <point x="496" y="716"/>
      <point x="348" y="598"/>
      <point x="245" y="385" type="qcurve"/>
      <point x="245" y="564" type="line"/>
      <point x="321" y="742"/>
      <point x="532" y="872"/>
      <point x="642" y="872" type="qcurve" smooth="yes"/>
      <point x="792" y="872"/>
      <point x="980" y="689"/>
    </contour>
    <contour>
      <point x="921" y="633" type="line"/>
      <point x="945" y="726"/>
      <point x="1132" y="872"/>
      <point x="1270" y="872" type="qcurve" smooth="yes"/>
      <point x="1442" y="872"/>
      <point x="1626" y="691"/>
      <point x="1626" y="479" type="qcurve" smooth="yes"/>
      <point x="1626" y="0" type="line"/>
      <point x="1440" y="0" type="line"/>
      <point x="1440" y="481" type="line" smooth="yes"/>
      <point x="1440" y="607"/>
      <point x="1332" y="716"/>
      <point x="1222" y="716" type="qcurve" smooth="yes"/>
      <point x="1111" y="716"/>
      <point x="959" y="535"/>
      <point x="921" y="385" type="qcurve"/>
    </contour>
  </outline>
</glyph>
<glyph name="n" format="2">
  <advance width="1138"/>
  <unicode hex="006E"/>
  <anchor x="569" y="0" name="bottom"/>
  <anchor x="569" y="852" name="top"/>
  <anchor x="907" y="0" name="engtail"/>
  <outline>
    <contour>
      <point x="148" y="0" type="line"/>
      <point x="148" y="852" type="line"/>
      <point x="316" y="852" type="line"/>
      <point x="334" y="544" type="line"/>
      <point x="334" y="0" type="line"/>
    </contour>
    <contour>
      <point x="241" y="367" type="qcurve"/>
      <point x="241" y="546" type="line"/>
      <point x="312" y="732"/>
      <point x="533" y="882"/>
      <point x="652" y="882" type="qcurve" smooth="yes"/>
      <point x="811" y="882"/>
      <point x="1000" y="691"/>
      <point x="1000" y="479" type="qcurve" smooth="yes"/>
      <point x="1000" y="0" type="line"/>
      <point x="814" y="0" type="line"/>
      <point x="814" y="481" type="line" smooth="yes"/>
      <point x="814" y="607"/>
      <point x="701" y="726"/>
      <point x="597" y="726" type="qcurve" smooth="yes"/>
      <point x="506" y="726"/>
      <point x="345" y="600"/>
    </contour>
  </outline>
</glyph>
<glyph name="o" format="2">
  <advance width="1162"/>
  <unicode hex="006F"/>
  <anchor x="581" y="0" name="bottom"/>
  <anchor x="581" y="426" name="center"/>
  <anchor x="762" y="0" name="ogonek"/>
  <anchor x="581" y="852" name="top"/>
  <anchor x="760" y="852" name="topright"/>
  <anchor x="182" y="439" name="yu_dash"/>
  <outline>
    <contour>
      <point x="85" y="410" type="qcurve" smooth="yes"/>
      <point x="85" y="442" type="line" smooth="yes"/>
      <point x="85" y="644"/>
      <point x="355" y="882"/>
      <point x="581" y="882" type="qcurve" smooth="yes"/>
      <point x="807" y="882"/>
      <point x="1077" y="644"/>
      <point x="1077" y="442" type="qcurve" smooth="yes"/>
      <point x="1077" y="410" type="line" smooth="yes"/>
      <point x="1077" y="208"/>
      <point x="807" y="-30"/>
      <point x="581" y="-30" type="qcurve" smooth="yes"/>
      <point x="355" y="-30"/>
      <point x="85" y="208"/>
    </contour>
    <contour>
      <point x="275" y="442" type="qcurve" smooth="yes"/>
      <point x="275" y="410" type="line" smooth="yes"/>
      <point x="275" y="274"/>
      <point x="437" y="122"/>
      <point x="581" y="122" type="qcurve" smooth="yes"/>
      <point x="725" y="122"/>
      <point x="887" y="274"/>
      <point x="887" y="410" type="qcurve" smooth="yes"/>
      <point x="887" y="442" type="line" smooth="yes"/>
      <point x="887" y="578"/>
      <point x="725" y="730"/>
      <point x="581" y="730" type="qcurve" smooth="yes"/>
      <point x="437" y="730"/>
      <point x="275" y="578"/>
    </contour>
  </outline>
</glyph>
<glyph name="q" format="2">
  <advance width="1170"/>
  <unicode hex="0071"/>
  <anchor x="585" y="0" name="bottom"/>
  <anchor x="585" y="852" name="top"/>
  <outline>
    <contour>
      <point x="836" y="-416" type="line"/>
      <point x="836" y="715" type="line"/>
      <point x="846" y="715" type="line"/>
      <point x="854" y="852" type="line"/>
      <point x="1022" y="852" type="line"/>
      <point x="1022" y="-416" type="line"/>
    </contour>
    <contour>
      <point x="565" y="132" type="qcurve" smooth="yes"/>
      <point x="702" y="132"/>
      <point x="879" y="285"/>
      <point x="879" y="403" type="qcurve" smooth="yes"/>
      <point x="879" y="431" type="line" smooth="yes"/>
      <point x="879" y="557"/>
      <point x="702" y="720"/>
      <point x="565" y="720" type="qcurve" smooth="yes"/>
      <point x="428" y="720"/>
      <point x="275" y="563"/>
      <point x="275" y="442" type="qcurve" smooth="yes"/>
      <point x="275" y="410" type="line" smooth="yes"/>
      <point x="275" y="289"/>
      <point x="428" y="132"/>
    </contour>
    <contour>
      <point x="525" y="-20" type="qcurve" smooth="yes"/>
      <point x="323" y="-20"/>
      <point x="85" y="222"/>
      <point x="85" y="410" type="qcurve" smooth="yes"/>
      <point x="85" y="442" type="line" smooth="yes"/>
      <point x="85" y="630"/>
      <point x="323" y="872"/>
      <point x="525" y="872" type="qcurve" smooth="yes"/>
      <point x="709" y="872"/>
      <point x="946" y="623"/>
      <point x="946" y="431" type="qcurve" smooth="yes"/>
      <point x="946" y="405" type="line" smooth="yes"/>
      <point x="946" y="220"/>
      <point x="709" y="-20"/>
    </contour>
  </outline>
</glyph>
<glyph name="v" format="2">
  <advance width="942"/>
  <unicode hex="0076"/>
  <anchor x="471" y="0" name="bottom"/>
  <anchor x="471" y="852" name="top"/>
  <outline>
    <contour>
      <point x="0" y="852" type="line"/>
      <point x="180" y="852" type="line"/>
      <point x="434" y="300" type="line" smooth="yes"/>
      <point x="451" y="262"/>
      <point x="467" y="190"/>
      <point x="471" y="170" type="qcurve"/>
      <point x="477" y="170" type="line"/>
      <point x="481" y="190"/>
      <point x="497" y="262"/>
      <point x="514" y="300" type="qcurve" smooth="yes"/>
      <point x="766" y="852" type="line"/>
      <point x="942" y="852" type="line"/>
      <point x="542" y="0" type="line"/>
      <point x="400" y="0" type="line"/>
    </contour>
  </outline>
</glyph>
<glyph name="w" format="2">
  <advance width="1546"/>
  <unicode hex="0077"/>
  <anchor x="773" y="0" name="bottom"/>
  <anchor x="773" y="852" name="top"/>
  <outline>
    <contour>
      <point x="25" y="852" type="line"/>
      <point x="205" y="852" type="line"/>
      <point x="399" y="320" type="line" smooth="yes"/>
      <point x="413" y="282"/>
      <point x="423" y="230"/>
      <point x="431" y="190" type="qcurve"/>
      <point x="437" y="190" type="line"/>
      <point x="445" y="230"/>
      <point x="455" y="282"/>
      <point x="471" y="320" type="qcurve" smooth="yes"/>
      <point x="700" y="852" type="line"/>
      <point x="856" y="852" type="line"/>
      <point x="1092" y="320" type="line" smooth="yes"/>
      <point x="1109" y="282"/>
      <point x="1119" y="230"/>
      <point x="1127" y="190" type="qcurve"/>
      <point x="1133" y="190" type="line"/>
      <point x="1141" y="230"/>
      <point x="1149" y="281"/>
      <point x="1163" y="320" type="qcurve" smooth="yes"/>
      <point x="1351" y="852" type="line"/>
      <point x="1521" y="852" type="line"/>
      <point x="1196" y="0" type="line"/>
      <point x="1051" y="0" type="line"/>
      <point x="822" y="520" type="line" smooth="yes"/>
      <point x="805" y="558"/>
      <point x="786" y="640"/>
      <point x="776" y="680" type="qcurve"/>
      <point x="770" y="680" type="line"/>
      <point x="760" y="640"/>
      <point x="741" y="558"/>
      <point x="724" y="520" type="qcurve" smooth="yes"/>
      <point x="495" y="0" type="line"/>
      <point x="350" y="0" type="line"/>
    </contour>
  </outline>
</glyph>
<glyph name="y" format="2">
  <advance width="942"/>
  <unicode hex="0079"/>
  <anchor x="778" y="0" name="bottom"/>
  <anchor x="489" y="852" name="top"/>
  <outline>
    <contour>
      <point x="50" y="-416" type="qcurve"/>
      <point x="50" y="-258" type="line"/>
      <point x="76" y="-266"/>
      <point x="140" y="-276"/>
      <point x="170" y="-276" type="qcurve" smooth="yes"/>
      <point x="240" y="-276"/>
      <point x="344" y="-171"/>
      <point x="402" y="4" type="qcurve"/>
      <point x="402" y="5" type="line"/>
      <point x="10" y="852" type="line"/>
      <point x="190" y="852" type="line"/>
      <point x="439" y="320" type="line" smooth="yes"/>
      <point x="457" y="282"/>
      <point x="475" y="210"/>
      <point x="483" y="180" type="qcurve"/>
      <point x="489" y="180" type="line"/>
      <point x="498" y="210"/>
      <point x="518" y="282"/>
      <point x="534" y="320" type="qcurve" smooth="yes"/>
      <point x="766" y="852" type="line"/>
      <point x="942" y="852" type="line"/>
      <point x="515" y="-140" type="line" smooth="yes"/>
      <point x="456" y="-276"/>
      <point x="300" y="-436"/>
      <point x="180" y="-436" type="qcurve" smooth="yes"/>
      <point x="140" y="-436"/>
      <point x="78" y="-426"/>
    </contour>
  </outline>
</glyph>
<glyph name="germandbls" format="2">
  <advance width="1186"/>
  <unicode hex="00DF"/>
  <outline>
    <contour>
      <point x="332" y="1092" type="qcurve" name="hr00"/>
      <point x="332" y="0" type="line"/>
      <point x="148" y="0" type="line"/>
      <point x="148" y="1092" type="line" smooth="yes"/>
      <point x="148" y="1295"/>
      <point x="356" y="1534"/>
      <point x="555" y="1534" type="qcurve" smooth="yes"/>
      <point x="719" y="1534"/>
      <point x="917" y="1347"/>
      <point x="917" y="1166" type="qcurve" smooth="yes"/>
      <point x="917" y="1035"/>
      <point x="850" y="846"/>
      <point x="813" y="783" type="qcurve" smooth="yes"/>
      <point x="793" y="749"/>
      <point x="748" y="674"/>
      <point x="748" y="649" type="qcurve" smooth="yes"/>
      <point x="748" y="610"/>
      <point x="801" y="564"/>
      <point x="906" y="527" type="qcurve" smooth="yes"/>
      <point x="1041" y="479"/>
      <point x="1138" y="367"/>
      <point x="1138" y="260" type="qcurve" smooth="yes"/>
      <point x="1138" y="157"/>
      <point x="920" y="-20"/>
      <point x="753" y="-20" type="qcurve" smooth="yes"/>
      <point x="589" y="-20"/>
      <point x="392" y="129"/>
      <point x="392" y="278" type="qcurve" smooth="yes"/>
      <point x="392" y="304" type="line"/>
      <point x="555" y="304" type="line"/>
      <point x="555" y="295" type="line" smooth="yes"/>
      <point x="555" y="211"/>
      <point x="660" y="131"/>
      <point x="755" y="131" type="qcurve" smooth="yes"/>
      <point x="856" y="131"/>
      <point x="963" y="196"/>
      <point x="963" y="259" type="qcurve" smooth="yes"/>
      <point x="963" y="310"/>
      <point x="867" y="372"/>
      <point x="801" y="394" type="qcurve" smooth="yes"/>
      <point x="697" y="428"/>
      <point x="563" y="527"/>
      <point x="563" y="595" type="qcurve" smooth="yes"/>
      <point x="563" y="650"/>
      <point x="627" y="778"/>
      <point x="650" y="817" type="qcurve" smooth="yes"/>
      <point x="683" y="873"/>
      <point x="742" y="1058"/>
      <point x="742" y="1150" type="qcurve" smooth="yes"/>
      <point x="742" y="1283"/>
      <point x="647" y="1383"/>
      <point x="551" y="1383" type="qcurve" smooth="yes"/>
      <point x="448" y="1383"/>
      <point x="332" y="1241"/>
    </contour>
  </outline>
</glyph>
<glyph name="oe" format="2">
  <advance width="1889"/>
  <unicode hex="0153"/>
  <outline>
    <contour>
      <point x="275" y="442" type="qcurve" smooth="yes"/>
      <point x="275" y="410" type="line" smooth="yes"/>
      <point x="275" y="274"/>
      <point x="437" y="122"/>
      <point x="581" y="122" type="qcurve" smooth="yes"/>
      <point x="725" y="122"/>
      <point x="887" y="274"/>
      <point x="887" y="410" type="qcurve" smooth="yes"/>
      <point x="887" y="442" type="line" smooth="yes"/>
      <point x="887" y="578"/>
      <point x="725" y="730"/>
      <point x="581" y="730" type="qcurve" smooth="yes"/>
      <point x="437" y="730"/>
      <point x="275" y="578"/>
    </contour>
    <contour>
      <point x="982" y="714" type="qcurve"/>
      <point x="1035" y="792"/>
      <point x="1234" y="882"/>
      <point x="1362" y="882" type="qcurve" smooth="yes"/>
      <point x="1577" y="882"/>
      <point x="1809" y="654"/>
      <point x="1809" y="460" type="qcurve" smooth="yes"/>
      <point x="1809" y="384" type="line"/>
      <point x="1000" y="384" type="line"/>
      <point x="1000" y="532" type="line"/>
      <point x="1622" y="532" type="line"/>
      <point x="1622" y="536" type="line" smooth="yes"/>
      <point x="1622" y="617"/>
      <point x="1502" y="730"/>
      <point x="1370" y="730" type="qcurve" smooth="yes"/>
      <point x="1232" y="730"/>
      <point x="1076" y="568"/>
      <point x="1076" y="442" type="qcurve" smooth="yes"/>
      <point x="1076" y="410" type="line" smooth="yes"/>
      <point x="1076" y="284"/>
      <point x="1234" y="122"/>
      <point x="1392" y="122" type="qcurve" smooth="yes"/>
      <point x="1492" y="122"/>
      <point x="1636" y="210"/>
      <point x="1681" y="270" type="qcurve"/>
      <point x="1801" y="175" type="line"/>
      <point x="1751" y="100"/>
      <point x="1542" y="-30"/>
      <point x="1392" y="-30" type="qcurve" smooth="yes"/>
      <point x="1253" y="-30"/>
      <point x="1045" y="56"/>
      <point x="982" y="131" type="qcurve"/>
      <point x="921" y="55"/>
      <point x="714" y="-30"/>
      <point x="581" y="-30" type="qcurve" smooth="yes"/>
      <point x="355" y="-30"/>
      <point x="85" y="208"/>
      <point x="85" y="410" type="qcurve" smooth="yes"/>
      <point x="85" y="442" type="line" smooth="yes"/>
      <point x="85" y="644"/>
      <point x="355" y="882"/>
      <point x="581" y="882" type="qcurve" smooth="yes"/>
      <point x="717" y="882"/>
      <point x="927" y="794"/>
    </contour>
  </outline>
</glyph>
<glyph name="schwa" format="2">
  <advance width="1088"/>
  <unicode hex="0259"/>
  <outline>
    <contour>
      <point x="1008" y="442" type="qcurve" smooth="yes"/>
      <point x="1008" y="410" type="line" smooth="yes"/>
      <point x="1008" y="218"/>
      <point x="750" y="-30"/>
      <point x="532" y="-30" type="qcurve" smooth="yes"/>
      <point x="317" y="-30"/>
      <point x="85" y="198"/>
      <point x="85" y="392" type="qcurve" smooth="yes"/>
      <point x="85" y="468" type="line"/>
      <point x="894" y="468" type="line"/>
      <point x="894" y="320" type="line"/>
      <point x="272" y="320" type="line"/>
      <point x="272" y="316" type="line" smooth="yes"/>
      <point x="272" y="235"/>
      <point x="392" y="122"/>
      <point x="524" y="122" type="qcurve" smooth="yes"/>
      <point x="662" y="122"/>
      <point x="818" y="284"/>
      <point x="818" y="410" type="qcurve" smooth="yes"/>
      <point x="818" y="442" type="line" smooth="yes"/>
      <point x="818" y="568"/>
      <point x="660" y="730"/>
      <point x="502" y="730" type="qcurve" smooth="yes"/>
      <point x="402" y="730"/>
      <point x="258" y="642"/>
      <point x="213" y="582" type="qcurve"/>
      <point x="93" y="677" type="line"/>
      <point x="143" y="752"/>
      <point x="352" y="882"/>
      <point x="502" y="882" type="qcurve" smooth="yes"/>
      <point x="743" y="882"/>
      <point x="1008" y="634"/>
    </contour>
  </outline>
</glyph>
<glyph name="kappa" format="2">
  <advance width="1043"/>
  <unicode hex="03BA"/>
  <outline>
    <contour>
      <point x="830" y="0" type="line"/>
      <point x="478" y="377" type="line"/>
      <point x="572" y="503" type="line"/>
      <point x="1058" y="0" type="line"/>
    </contour>
    <contour>
      <point x="241" y="510" type="line"/>
      <point x="487" y="510" type="line"/>
      <point x="805" y="852" type="line"/>
      <point x="1023" y="852" type="line"/>
      <point x="555" y="365" type="line"/>
      <point x="241" y="365" type="line"/>
    </contour>
    <contour>
      <point x="334" y="852" type="line"/>
      <point x="334" y="0" type="line"/>
      <point x="148" y="0" type="line"/>
      <point x="148" y="852" type="line"/>
    </contour>
  </outline>
</glyph>
<glyph name="be" format="2">
  <advance width="1172"/>
  <unicode hex="0431"/>
  <outline>
    <contour>
      <point x="285" y="442" type="qcurve" smooth="yes"/>
      <point x="285" y="410" type="line" smooth="yes"/>
      <point x="285" y="287"/>
      <point x="440" y="122"/>
      <point x="591" y="122" type="qcurve" smooth="yes"/>
      <point x="725" y="122"/>
      <point x="897" y="284"/>
      <point x="897" y="410" type="qcurve" smooth="yes"/>
      <point x="897" y="442" type="line" smooth="yes"/>
      <point x="897" y="568"/>
      <point x="725" y="730"/>
      <point x="591" y="730" type="qcurve" smooth="yes"/>
      <point x="457" y="730"/>
      <point x="285" y="568"/>
    </contour>
    <contour>
      <point x="637" y="882" type="qcurve" smooth="yes"/>
      <point x="833" y="882"/>
      <point x="1087" y="634"/>
      <point x="1087" y="442" type="qcurve" smooth="yes"/>
      <point x="1087" y="410" type="line" smooth="yes"/>
      <point x="1087" y="218"/>
      <point x="807" y="-30"/>
      <point x="591" y="-30" type="qcurve" smooth="yes"/>
      <point x="357" y="-30"/>
      <point x="95" y="278"/>
      <point x="95" y="525" type="qcurve" smooth="yes"/>
      <point x="95" y="551" type="line" smooth="yes"/>
      <point x="95" y="919"/>
      <point x="338" y="1397"/>
      <point x="667" y="1447" type="qcurve" smooth="yes"/>
      <point x="838.8928000361" y="1473.2209355987"/>
      <point x="892.0055992277" y="1511.0279961385"/>
      <point x="897" y="1536" type="qcurve"/>
      <point x="1061" y="1536" type="line"/>
      <point x="1050" y="1431"/>
      <point x="903" y="1308"/>
      <point x="688" y="1279" type="qcurve" smooth="yes"/>
      <point x="432.009254284" y="1245.0012290846"/>
      <point x="254" y="896"/>
      <point x="237" y="701" type="qcurve"/>
      <point x="248" y="701" type="line"/>
      <point x="284" y="780"/>
      <point x="504" y="882"/>
    </contour>
  </outline>
</glyph>
<glyph name="zhe" format="2">
  <advance width="1395"/>
  <unicode hex="0436"/>
  <anchor x="696" y="852" name="top"/>
  <anchor x="1220" y="0" name="cy_descender"/>
  <outline>
    <contour>
      <point x="785" y="0" type="line"/>
      <point x="605" y="0" type="line"/>
      <point x="605" y="852" type="line"/>
      <point x="785" y="852" type="line"/>
    </contour>
    <contour>
      <point x="1210" y="0" type="line"/>
      <point x="889" y="372" type="line"/>
      <point x="999" y="491" type="line"/>
      <point x="1420" y="0" type="line"/>
    </contour>
    <contour>
      <point x="695" y="510" type="line"/>
      <point x="884" y="510" type="line"/>
      <point x="1179" y="852" type="line"/>
      <point x="1383" y="852" type="line"/>
      <point x="971" y="365" type="line"/>
      <point x="695" y="365" type="line"/>
    </contour>
    <contour>
      <point x="180" y="0" type="line"/>
      <point x="-25" y="0" type="line"/>
      <point x="396" y="491" type="line"/>
      <point x="499" y="372" type="line"/>
    </contour>
    <contour>
      <point x="695" y="510" type="line"/>
      <point x="695" y="365" type="line"/>
      <point x="417" y="365" type="line"/>
      <point x="5" y="852" type="line"/>
      <point x="211" y="852" type="line"/>
      <point x="506" y="510" type="line"/>
    </contour>
  </outline>
</glyph>
<glyph name="ecyr" format="2">
  <advance width="1068"/>
  <unicode hex="044D"/>
  <guideline x="889" y="493" angle="90" identifier="9ss4WcbEUf"/>
  <anchor x="507" y="852" name="top"/>
  <outline>
    <contour>
      <point x="983" y="410" type="line" smooth="yes"/>
      <point x="983" y="198"/>
      <point x="736" y="-30"/>
      <point x="507" y="-30" type="qcurve" smooth="yes"/>
      <point x="296" y="-30"/>
      <point x="69" y="134"/>
      <point x="69" y="287" type="qcurve" smooth="yes"/>
      <point x="69" y="292" type="line"/>
      <point x="249" y="292" type="line"/>
      <point x="249" y="287" type="line" smooth="yes"/>
      <point x="249" y="207"/>
      <point x="383" y="122"/>
      <point x="507" y="122" type="qcurve" smooth="yes"/>
      <point x="648" y="122"/>
      <point x="799" y="266"/>
      <point x="799" y="400" type="qcurve" smooth="yes"/>
      <point x="799" y="464" type="line" smooth="yes"/>
      <point x="799" y="592"/>
      <point x="650" y="730"/>
      <point x="511" y="730" type="qcurve" smooth="yes"/>
      <point x="387" y="730"/>
      <point x="253" y="645"/>
      <point x="253" y="565" type="qcurve" smooth="yes"/>
      <point x="253" y="560" type="line"/>
      <point x="73" y="560" type="line"/>
      <point x="73" y="565" type="line" smooth="yes"/>
      <point x="73" y="718"/>
      <point x="300" y="882"/>
      <point x="511" y="882" type="qcurve" smooth="yes"/>
      <point x="738" y="882"/>
      <point x="983" y="654"/>
      <point x="983" y="442" type="qcurve" smooth="yes"/>
    </contour>
    <contour>
      <point x="889" y="510" type="line"/>
      <point x="889" y="365" type="line"/>
      <point x="358" y="365" type="line"/>
      <point x="358" y="510" type="line"/>
    </contour>
  </outline>
</glyph>
<glyph name="ieukran" format="2">
  <advance width="1068"/>
  <unicode hex="0454"/>
  <guideline x="180" y="548" angle="90" identifier="n4jm0tBg3Y"/>
  <outline>
    <contour>
      <point x="85" y="410" type="qcurve" smooth="yes"/>
      <point x="85" y="442" type="line" smooth="yes"/>
      <point x="85" y="634"/>
      <point x="339" y="882"/>
      <point x="571" y="882" type="qcurve" smooth="yes"/>
      <point x="758" y="882"/>
      <point x="999" y="698"/>
      <point x="999" y="555" type="qcurve" smooth="yes"/>
      <point x="999" y="550" type="line"/>
      <point x="819" y="550" type="line"/>
      <point x="819" y="555" type="line" smooth="yes"/>
      <point x="819" y="631"/>
      <point x="679" y="730"/>
      <point x="571" y="730" type="qcurve" smooth="yes"/>
      <point x="420" y="730"/>
      <point x="271" y="580"/>
      <point x="271" y="464" type="qcurve" smooth="yes"/>
      <point x="271" y="400" type="line" smooth="yes"/>
      <point x="271" y="279"/>
      <point x="420" y="122"/>
      <point x="571" y="122" type="qcurve" smooth="yes"/>
      <point x="679" y="122"/>
      <point x="819" y="226"/>
      <point x="819" y="307" type="qcurve" smooth="yes"/>
      <point x="819" y="312" type="line"/>
      <point x="999" y="312" type="line"/>
      <point x="999" y="307" type="line" smooth="yes"/>
      <point x="999" y="160"/>
      <point x="758" y="-30"/>
      <point x="571" y="-30" type="qcurve" smooth="yes"/>
      <point x="339" y="-30"/>
      <point x="85" y="218"/>
    </contour>
    <contour>
      <point x="181" y="510" type="line"/>
      <point x="710" y="510" type="line"/>
      <point x="710" y="365" type="line"/>
      <point x="181" y="365" type="line"/>
    </contour>
  </outline>
</glyph>
<glyph name="el.bgr" format="2">
  <advance width="942"/>
  <outline>
    <contour>
      <point x="942" y="0" type="line"/>
      <point x="762" y="0" type="line"/>
      <point x="508" y="532" type="line" smooth="yes"/>
      <point x="490" y="570"/>
      <point x="475" y="642"/>
      <point x="471" y="662" type="qcurve"/>
      <point x="465" y="662" type="line"/>
      <point x="461" y="642"/>
      <point x="446" y="570"/>
      <point x="428" y="532" type="qcurve" smooth="yes"/>
      <point x="176" y="0" type="line"/>
      <point x="0" y="0" type="line"/>
      <point x="400" y="852" type="line"/>
      <point x="542" y="852" type="line"/>
    </contour>
  </outline>
</glyph>
<glyph name="hacyr-stroke" format="2">
  <advance width="978"/>
  <outline>
    <contour>
      <point x="156" y="365" type="line"/>
      <point x="156" y="510" type="line"/>
      <point x="822" y="510" type="line"/>
      <point x="822" y="365" type="line"/>
    </contour>
  </outline>
</glyph>
<glyph name="hard.bgr" format="2">
  <advance width="1260"/>
  <outline>
    <contour>
      <point x="320" y="351" type="qcurve" smooth="yes"/>
      <point x="320" y="707" type="line"/>
      <point x="30" y="707" type="line"/>
      <point x="30" y="852" type="line"/>
      <point x="506" y="852" type="line"/>
      <point x="506" y="351" type="line" smooth="yes"/>
      <point x="506" y="252"/>
      <point x="618" y="123"/>
      <point x="758" y="123" type="qcurve" smooth="yes"/>
      <point x="881" y="123"/>
      <point x="1014" y="216"/>
      <point x="1014" y="302" type="qcurve" smooth="yes"/>
      <point x="1014" y="384"/>
      <point x="892" y="473"/>
      <point x="778" y="473" type="qcurve" smooth="yes"/>
      <point x="416" y="473" type="line"/>
      <point x="416" y="618" type="line"/>
      <point x="778" y="618" type="line" smooth="yes"/>
      <point x="981" y="618"/>
      <point x="1200" y="454"/>
      <point x="1200" y="302" type="qcurve" smooth="yes"/>
      <point x="1200" y="142"/>
      <point x="971" y="-30"/>
      <point x="758" y="-30" type="qcurve" smooth="yes"/>
      <point x="547" y="-30"/>
      <point x="320" y="177"/>
    </contour>
  </outline>
</glyph>
<glyph name="yu.bgr" format="2">
  <advance width="1615"/>
  <outline>
    <contour>
      <point x="156" y="0" type="line"/>
      <point x="156" y="1536" type="line"/>
      <point x="342" y="1536" type="line"/>
      <point x="342" y="0" type="line"/>
    </contour>
    <contour>
      <point x="558" y="410" type="qcurve" smooth="yes"/>
      <point x="558" y="442" type="line" smooth="yes"/>
      <point x="558" y="634"/>
      <point x="832" y="882"/>
      <point x="1044" y="882" type="qcurve" smooth="yes"/>
      <point x="1256" y="882"/>
      <point x="1530" y="634"/>
      <point x="1530" y="442" type="qcurve" smooth="yes"/>
      <point x="1530" y="410" type="line" smooth="yes"/>
      <point x="1530" y="218"/>
      <point x="1256" y="-30"/>
      <point x="1044" y="-30" type="qcurve" smooth="yes"/>
      <point x="832" y="-30"/>
      <point x="558" y="218"/>
    </contour>
    <contour>
      <point x="748" y="442" type="qcurve" smooth="yes"/>
      <point x="748" y="410" type="line" smooth="yes"/>
      <point x="748" y="284"/>
      <point x="915" y="122"/>
      <point x="1044" y="122" type="qcurve" smooth="yes"/>
      <point x="1173" y="122"/>
      <point x="1340" y="284"/>
      <point x="1340" y="410" type="qcurve" smooth="yes"/>
      <point x="1340" y="442" type="line" smooth="yes"/>
      <point x="1340" y="568"/>
      <point x="1173" y="730"/>
      <point x="1044" y="730" type="qcurve" smooth="yes"/>
      <point x="915" y="730"/>
      <point x="748" y="568"/>
    </contour>
    <contour>
      <point x="262" y="365" type="line"/>
      <point x="262" y="510" type="line"/>
      <point x="658" y="510" type="line"/>
      <point x="658" y="365" type="line"/>
    </contour>
  </outline>
</glyph>
<glyph name="zhe.bgr" format="2">
  <advance width="1530"/>
  <outline>
    <contour>
      <point x="-16" y="0" type="line"/>
      <point x="476" y="542" type="line"/>
      <point x="588" y="444" type="line"/>
      <point x="198" y="0" type="line"/>
    </contour>
    <contour>
      <point x="670" y="0" type="line"/>
      <point x="670" y="1536" type="line"/>
      <point x="856" y="1536" type="line"/>
      <point x="856" y="0" type="line"/>
    </contour>
    <contour>
      <point x="1328" y="0" type="line"/>
      <point x="938" y="444" type="line"/>
      <point x="1054" y="542" type="line"/>
      <point x="1546" y="0" type="line"/>
    </contour>
    <contour>
      <point x="29" y="852" type="line"/>
      <point x="240" y="852" type="line"/>
      <point x="755" y="444" type="line"/>
      <point x="755" y="258" type="line"/>
    </contour>
    <contour>
      <point x="1497" y="852" type="line"/>
      <point x="770" y="257" type="line"/>
      <point x="770" y="442" type="line"/>
      <point x="1286" y="852" type="line"/>
    </contour>
  </outline>
</glyph>
